# xmcd
#
# Track frame offsets:
#	150
#	14530
#	24405
#	36318
#	45011
#	58941
#	75181
#	88335
#	99161
#	111246
#
# Disc length: 1618 seconds
#
# Revision: 1
# Processed by: cddbd v1.4PL0 Copyright (c) Steve Scherf et al.
# Submitted via: CDmax 1.9
#
DISCID=6e06500a
DTITLE=Earl Scruggs - Dueling Banjos
DYEAR=1900
DGENRE=Country
TTITLE0=String Bender
TTITLE1=Peking Fling
TTITLE2=Black Mountain Blues
TTITLE3=Just Joshin'
TTITLE4=Dueling Banjos
TTITLE5=Lonesome Ruben
TTITLE6=John Hardy
TTITLE7=Flint Hill Special
TTITLE8=Randy Lynn Rag
TTITLE9=Fireball Mail
EXTD=
EXTT0=
EXTT1=
EXTT2=
EXTT3=
EXTT4=
EXTT5=
EXTT6=
EXTT7=
EXTT8=
EXTT9=
PLAYORDER=
